<mxfile host="app.diagrams.net" modified="2023-03-26T06:52:59.316Z" agent="Mozilla/5.0 (Macintosh; Intel Mac OS X 10_15_7) AppleWebKit/537.36 (KHTML, like Gecko) Chrome/110.0.0.0 Safari/537.36" etag="_yaDThS_AeJILWlRi1u0" version="21.1.1" type="github">
  <diagram name="第 1 页" id="4F_Ih7zAqOzTCXa6GfcF">
    <mxGraphModel dx="1242" dy="751" grid="1" gridSize="10" guides="1" tooltips="1" connect="1" arrows="1" fold="1" page="1" pageScale="1" pageWidth="1169" pageHeight="827" math="0" shadow="0">
      <root>
        <mxCell id="0" />
        <mxCell id="1" parent="0" />
        <mxCell id="V2G2HD03NRLjbW9rKFIw-1" value="" style="ellipse;whiteSpace=wrap;html=1;aspect=fixed;" vertex="1" parent="1">
          <mxGeometry x="305" y="180" width="310" height="310" as="geometry" />
        </mxCell>
        <mxCell id="V2G2HD03NRLjbW9rKFIw-2" value="" style="ellipse;whiteSpace=wrap;html=1;aspect=fixed;" vertex="1" parent="1">
          <mxGeometry x="590" y="406" width="10" height="10" as="geometry" />
        </mxCell>
        <mxCell id="V2G2HD03NRLjbW9rKFIw-3" value="" style="ellipse;whiteSpace=wrap;html=1;aspect=fixed;" vertex="1" parent="1">
          <mxGeometry x="455" y="172" width="10" height="10" as="geometry" />
        </mxCell>
        <mxCell id="V2G2HD03NRLjbW9rKFIw-6" value="" style="ellipse;whiteSpace=wrap;html=1;aspect=fixed;" vertex="1" parent="1">
          <mxGeometry x="611" y="330" width="10" height="10" as="geometry" />
        </mxCell>
        <mxCell id="V2G2HD03NRLjbW9rKFIw-7" value="" style="ellipse;whiteSpace=wrap;html=1;aspect=fixed;" vertex="1" parent="1">
          <mxGeometry x="455" y="490" width="10" height="10" as="geometry" />
        </mxCell>
        <mxCell id="V2G2HD03NRLjbW9rKFIw-8" value="" style="ellipse;whiteSpace=wrap;html=1;aspect=fixed;" vertex="1" parent="1">
          <mxGeometry x="300" y="330" width="10" height="10" as="geometry" />
        </mxCell>
        <mxCell id="V2G2HD03NRLjbW9rKFIw-9" value="" style="ellipse;whiteSpace=wrap;html=1;aspect=fixed;" vertex="1" parent="1">
          <mxGeometry x="540" y="200" width="10" height="10" as="geometry" />
        </mxCell>
        <mxCell id="V2G2HD03NRLjbW9rKFIw-10" value="" style="ellipse;whiteSpace=wrap;html=1;aspect=fixed;" vertex="1" parent="1">
          <mxGeometry x="590" y="250" width="10" height="10" as="geometry" />
        </mxCell>
        <mxCell id="V2G2HD03NRLjbW9rKFIw-14" value="" style="ellipse;whiteSpace=wrap;html=1;aspect=fixed;" vertex="1" parent="1">
          <mxGeometry x="370" y="200" width="10" height="10" as="geometry" />
        </mxCell>
        <mxCell id="V2G2HD03NRLjbW9rKFIw-15" value="" style="ellipse;whiteSpace=wrap;html=1;aspect=fixed;" vertex="1" parent="1">
          <mxGeometry x="370" y="460" width="10" height="10" as="geometry" />
        </mxCell>
        <mxCell id="V2G2HD03NRLjbW9rKFIw-16" value="" style="ellipse;whiteSpace=wrap;html=1;aspect=fixed;" vertex="1" parent="1">
          <mxGeometry x="540" y="460" width="10" height="10" as="geometry" />
        </mxCell>
        <mxCell id="V2G2HD03NRLjbW9rKFIw-21" value="" style="ellipse;whiteSpace=wrap;html=1;aspect=fixed;" vertex="1" parent="1">
          <mxGeometry x="320" y="250" width="10" height="10" as="geometry" />
        </mxCell>
        <mxCell id="V2G2HD03NRLjbW9rKFIw-22" value="" style="ellipse;whiteSpace=wrap;html=1;aspect=fixed;" vertex="1" parent="1">
          <mxGeometry x="320" y="406" width="10" height="10" as="geometry" />
        </mxCell>
        <mxCell id="V2G2HD03NRLjbW9rKFIw-23" value="" style="shape=flexArrow;endArrow=classic;html=1;rounded=0;" edge="1" parent="1">
          <mxGeometry width="50" height="50" relative="1" as="geometry">
            <mxPoint x="459.5" y="92" as="sourcePoint" />
            <mxPoint x="459.5" y="172" as="targetPoint" />
          </mxGeometry>
        </mxCell>
        <mxCell id="V2G2HD03NRLjbW9rKFIw-24" value="入口" style="text;html=1;strokeColor=none;fillColor=none;align=center;verticalAlign=middle;whiteSpace=wrap;rounded=0;" vertex="1" parent="1">
          <mxGeometry x="465" y="90" width="60" height="30" as="geometry" />
        </mxCell>
      </root>
    </mxGraphModel>
  </diagram>
</mxfile>
